<?xml version="1.0" encoding="UTF-8"?>
<svg version="1.1" xmlns="http://www.w3.org/2000/svg" width="160" height="160">
<path d="M0 0 C6.6 0 13.2 0 20 0 C20 3.3 20 6.6 20 10 C23.3 10 26.6 10 30 10 C30 13.3 30 16.6 30 20 C33.3 20 36.6 20 40 20 C40 23.3 40 26.6 40 30 C43.3 30 46.6 30 50 30 C50 33.3 50 36.6 50 40 C53.3 40 56.6 40 60 40 C60 53.2 60 66.4 60 80 C56.7 80 53.4 80 50 80 C50 83.3 50 86.6 50 90 C43.4 90 36.8 90 30 90 C30 93.3 30 96.6 30 100 C20.1 100 10.2 100 0 100 C0 103.3 0 106.6 0 110 C-9.9 110 -19.8 110 -30 110 C-30 113.3 -30 116.6 -30 120 C-43.2 120 -56.4 120 -70 120 C-70 116.7 -70 113.4 -70 110 C-73.3 110 -76.6 110 -80 110 C-80 106.7 -80 103.4 -80 100 C-83.3 100 -86.6 100 -90 100 C-90 96.7 -90 93.4 -90 90 C-93.3 90 -96.6 90 -100 90 C-100 73.5 -100 57 -100 40 C-96.7 40 -93.4 40 -90 40 C-90 36.7 -90 33.4 -90 30 C-80.1 30 -70.2 30 -60 30 C-60 26.7 -60 23.4 -60 20 C-50.1 20 -40.2 20 -30 20 C-30 16.7 -30 13.4 -30 10 C-20.1 10 -10.2 10 0 10 C0 6.7 0 3.4 0 0 Z " fill="#9C4E31" transform="translate(100,20)"/>
<path d="M0 0 C3.3 0 6.6 0 10 0 C10 13.2 10 26.4 10 40 C6.7 40 3.4 40 0 40 C0 43.3 0 46.6 0 50 C-6.6 50 -13.2 50 -20 50 C-20 53.3 -20 56.6 -20 60 C-29.9 60 -39.8 60 -50 60 C-50 63.3 -50 66.6 -50 70 C-59.9 70 -69.8 70 -80 70 C-80 73.3 -80 76.6 -80 80 C-93.2 80 -106.4 80 -120 80 C-120 76.7 -120 73.4 -120 70 C-123.3 70 -126.6 70 -130 70 C-130 66.7 -130 63.4 -130 60 C-133.3 60 -136.6 60 -140 60 C-140 56.7 -140 53.4 -140 50 C-136.7 50 -133.4 50 -130 50 C-130 40.1 -130 30.2 -130 20 C-126.7 20 -123.4 20 -120 20 C-120 23.3 -120 26.6 -120 30 C-116.7 30 -113.4 30 -110 30 C-110 43.2 -110 56.4 -110 70 C-106.7 70 -103.4 70 -100 70 C-100 60.1 -100 50.2 -100 40 C-96.7 40 -93.4 40 -90 40 C-90 36.7 -90 33.4 -90 30 C-76.8 30 -63.6 30 -50 30 C-50 26.7 -50 23.4 -50 20 C-43.4 20 -36.8 20 -30 20 C-30 16.7 -30 13.4 -30 10 C-20.1 10 -10.2 10 0 10 C0 6.7 0 3.4 0 0 Z " fill="#9C4E31" transform="translate(150,60)"/>
<path d="M0 0 C6.6 0 13.2 0 20 0 C20 3.3 20 6.6 20 10 C23.3 10 26.6 10 30 10 C30 16.6 30 23.2 30 30 C20.1 30 10.2 30 0 30 C0 33.3 0 36.6 0 40 C-6.6 40 -13.2 40 -20 40 C-20 43.3 -20 46.6 -20 50 C-33.2 50 -46.4 50 -60 50 C-60 53.3 -60 56.6 -60 60 C-63.3 60 -66.6 60 -70 60 C-70 69.9 -70 79.8 -70 90 C-73.3 90 -76.6 90 -80 90 C-80 76.8 -80 63.6 -80 50 C-83.3 50 -86.6 50 -90 50 C-90 40.1 -90 30.2 -90 20 C-83.4 20 -76.8 20 -70 20 C-70 16.7 -70 13.4 -70 10 C-63.4 10 -56.8 10 -50 10 C-50 13.3 -50 16.6 -50 20 C-53.3 20 -56.6 20 -60 20 C-60 23.3 -60 26.6 -60 30 C-63.3 30 -66.6 30 -70 30 C-70 33.3 -70 36.6 -70 40 C-60.1 40 -50.2 40 -40 40 C-40 36.7 -40 33.4 -40 30 C-33.4 30 -26.8 30 -20 30 C-20 26.7 -20 23.4 -20 20 C-16.7 20 -13.4 20 -10 20 C-10 16.7 -10 13.4 -10 10 C-6.7 10 -3.4 10 0 10 C0 6.7 0 3.4 0 0 Z " fill="#E77C56" transform="translate(120,40)"/>
<path d="M0 0 C3.3 0 6.6 0 10 0 C10 13.2 10 26.4 10 40 C6.7 40 3.4 40 0 40 C0 43.3 0 46.6 0 50 C-6.6 50 -13.2 50 -20 50 C-20 53.3 -20 56.6 -20 60 C-29.9 60 -39.8 60 -50 60 C-50 53.4 -50 46.8 -50 40 C-46.7 40 -43.4 40 -40 40 C-40 36.7 -40 33.4 -40 30 C-36.7 30 -33.4 30 -30 30 C-30 23.4 -30 16.8 -30 10 C-20.1 10 -10.2 10 0 10 C0 6.7 0 3.4 0 0 Z " fill="#8A4129" transform="translate(150,60)"/>
<path d="M0 0 C3.3 0 6.6 0 10 0 C10 3.3 10 6.6 10 10 C13.3 10 16.6 10 20 10 C20 23.2 20 36.4 20 50 C29.9 50 39.8 50 50 50 C50 53.3 50 56.6 50 60 C36.8 60 23.6 60 10 60 C10 56.7 10 53.4 10 50 C6.7 50 3.4 50 0 50 C0 46.7 0 43.4 0 40 C-3.3 40 -6.6 40 -10 40 C-10 36.7 -10 33.4 -10 30 C-6.7 30 -3.4 30 0 30 C0 20.1 0 10.2 0 0 Z " fill="#A25031" transform="translate(20,80)"/>
<path d="M0 0 C6.6 0 13.2 0 20 0 C20 3.3 20 6.6 20 10 C23.3 10 26.6 10 30 10 C30 13.3 30 16.6 30 20 C26.7 20 23.4 20 20 20 C20 29.9 20 39.8 20 50 C13.4 50 6.8 50 0 50 C0 33.5 0 17 0 0 Z " fill="#E77C56" transform="translate(0,60)"/>
<path d="M0 0 C6.6 0 13.2 0 20 0 C20 3.3 20 6.6 20 10 C23.3 10 26.6 10 30 10 C30 16.6 30 23.2 30 30 C13.5 30 -3 30 -20 30 C-20 26.7 -20 23.4 -20 20 C-16.7 20 -13.4 20 -10 20 C-10 16.7 -10 13.4 -10 10 C-6.7 10 -3.4 10 0 10 C0 6.7 0 3.4 0 0 Z " fill="#E77C56" transform="translate(120,40)"/>
<path d="M0 0 C3.3 0 6.6 0 10 0 C10 13.2 10 26.4 10 40 C3.4 40 -3.2 40 -10 40 C-10 33.4 -10 26.8 -10 20 C-13.3 20 -16.6 20 -20 20 C-20 23.3 -20 26.6 -20 30 C-23.3 30 -26.6 30 -30 30 C-30 23.4 -30 16.8 -30 10 C-20.1 10 -10.2 10 0 10 C0 6.7 0 3.4 0 0 Z " fill="#9C4E31" transform="translate(150,60)"/>
<path d="M0 0 C6.6 0 13.2 0 20 0 C20 3.3 20 6.6 20 10 C16.7 10 13.4 10 10 10 C10 13.3 10 16.6 10 20 C6.7 20 3.4 20 0 20 C0 26.6 0 33.2 0 40 C-9.9 40 -19.8 40 -30 40 C-30 36.7 -30 33.4 -30 30 C-26.7 30 -23.4 30 -20 30 C-20 26.7 -20 23.4 -20 20 C-16.7 20 -13.4 20 -10 20 C-10 16.7 -10 13.4 -10 10 C-6.7 10 -3.4 10 0 10 C0 6.7 0 3.4 0 0 Z " fill="#C15A36" transform="translate(100,80)"/>
<path d="M0 0 C6.6 0 13.2 0 20 0 C20 3.3 20 6.6 20 10 C23.3 10 26.6 10 30 10 C30 13.3 30 16.6 30 20 C26.7 20 23.4 20 20 20 C20 23.3 20 26.6 20 30 C16.7 30 13.4 30 10 30 C10 26.7 10 23.4 10 20 C-3.2 20 -16.4 20 -30 20 C-30 16.7 -30 13.4 -30 10 C-20.1 10 -10.2 10 0 10 C0 6.7 0 3.4 0 0 Z " fill="#C15A36" transform="translate(100,20)"/>
<path d="M0 0 C13.2 0 26.4 0 40 0 C40 3.3 40 6.6 40 10 C33.4 10 26.8 10 20 10 C20 13.3 20 16.6 20 20 C6.8 20 -6.4 20 -20 20 C-20 16.7 -20 13.4 -20 10 C-13.4 10 -6.8 10 0 10 C0 6.7 0 3.4 0 0 Z " fill="#FC9982" transform="translate(80,70)"/>
<path d="M0 0 C9.9 0 19.8 0 30 0 C30 3.3 30 6.6 30 10 C23.4 10 16.8 10 10 10 C10 13.3 10 16.6 10 20 C3.4 20 -3.2 20 -10 20 C-10 23.3 -10 26.6 -10 30 C-13.3 30 -16.6 30 -20 30 C-20 26.7 -20 23.4 -20 20 C-23.3 20 -26.6 20 -30 20 C-30 16.7 -30 13.4 -30 10 C-20.1 10 -10.2 10 0 10 C0 6.7 0 3.4 0 0 Z " fill="#9C4529" transform="translate(40,40)"/>
<path d="M0 0 C6.6 0 13.2 0 20 0 C20 3.3 20 6.6 20 10 C16.7 10 13.4 10 10 10 C10 19.9 10 29.8 10 40 C6.7 40 3.4 40 0 40 C0 26.8 0 13.6 0 0 Z " fill="#FC9982" transform="translate(40,90)"/>
<path d="M0 0 C3.3 0 6.6 0 10 0 C10 16.5 10 33 10 50 C6.7 50 3.4 50 0 50 C0 33.5 0 17 0 0 Z " fill="#9C4529" transform="translate(0,60)"/>
<path d="M0 0 C3.3 0 6.6 0 10 0 C10 13.2 10 26.4 10 40 C6.7 40 3.4 40 0 40 C0 26.8 0 13.6 0 0 Z " fill="#6D3421" transform="translate(150,60)"/>
<path d="M0 0 C3.3 0 6.6 0 10 0 C10 3.3 10 6.6 10 10 C13.3 10 16.6 10 20 10 C20 13.3 20 16.6 20 20 C10.1 20 0.2 20 -10 20 C-10 16.7 -10 13.4 -10 10 C-6.7 10 -3.4 10 0 10 C0 6.7 0 3.4 0 0 Z " fill="#C15A36" transform="translate(60,60)"/>
<path d="M0 0 C9.9 0 19.8 0 30 0 C30 3.3 30 6.6 30 10 C20.1 10 10.2 10 0 10 C0 6.7 0 3.4 0 0 Z " fill="#6D3421" transform="translate(70,120)"/>
<path d="M0 0 C9.9 0 19.8 0 30 0 C30 3.3 30 6.6 30 10 C20.1 10 10.2 10 0 10 C0 6.7 0 3.4 0 0 Z " fill="#6D3421" transform="translate(100,110)"/>
<path d="M0 0 C9.9 0 19.8 0 30 0 C30 3.3 30 6.6 30 10 C20.1 10 10.2 10 0 10 C0 6.7 0 3.4 0 0 Z " fill="#8A4129" transform="translate(100,100)"/>
<path d="M0 0 C9.9 0 19.8 0 30 0 C30 3.3 30 6.6 30 10 C20.1 10 10.2 10 0 10 C0 6.7 0 3.4 0 0 Z " fill="#FC9982" transform="translate(60,80)"/>
<path d="M0 0 C9.9 0 19.8 0 30 0 C30 3.3 30 6.6 30 10 C20.1 10 10.2 10 0 10 C0 6.7 0 3.4 0 0 Z " fill="#FC9982" transform="translate(120,60)"/>
<path d="M0 0 C3.3 0 6.6 0 10 0 C10 3.3 10 6.6 10 10 C13.3 10 16.6 10 20 10 C20 13.3 20 16.6 20 20 C13.4 20 6.8 20 0 20 C0 13.4 0 6.8 0 0 Z " fill="#C15A36" transform="translate(130,40)"/>
<path d="M0 0 C6.6 0 13.2 0 20 0 C20 3.3 20 6.6 20 10 C16.7 10 13.4 10 10 10 C10 13.3 10 16.6 10 20 C6.7 20 3.4 20 0 20 C0 13.4 0 6.8 0 0 Z " fill="#C15A36" transform="translate(70,40)"/>
<path d="M0 0 C9.9 0 19.8 0 30 0 C30 3.3 30 6.6 30 10 C20.1 10 10.2 10 0 10 C0 6.7 0 3.4 0 0 Z " fill="#9C4529" transform="translate(70,30)"/>
<path d="M0 0 C6.6 0 13.2 0 20 0 C20 3.3 20 6.6 20 10 C13.4 10 6.8 10 0 10 C0 6.7 0 3.4 0 0 Z " fill="#6D3421" transform="translate(50,130)"/>
<path d="M0 0 C6.6 0 13.2 0 20 0 C20 3.3 20 6.6 20 10 C13.4 10 6.8 10 0 10 C0 6.7 0 3.4 0 0 Z " fill="#9C4529" transform="translate(30,130)"/>
<path d="M0 0 C6.6 0 13.2 0 20 0 C20 3.3 20 6.6 20 10 C13.4 10 6.8 10 0 10 C0 6.7 0 3.4 0 0 Z " fill="#6D3421" transform="translate(130,100)"/>
<path d="M0 0 C6.6 0 13.2 0 20 0 C20 3.3 20 6.6 20 10 C13.4 10 6.8 10 0 10 C0 6.7 0 3.4 0 0 Z " fill="#FC9982" transform="translate(40,90)"/>
<path d="M0 0 C6.6 0 13.2 0 20 0 C20 3.3 20 6.6 20 10 C13.4 10 6.8 10 0 10 C0 6.7 0 3.4 0 0 Z " fill="#9C4529" transform="translate(100,20)"/>
<path d="M0 0 C3.3 0 6.6 0 10 0 C10 3.3 10 6.6 10 10 C6.7 10 3.4 10 0 10 C0 6.7 0 3.4 0 0 Z " fill="#C15A36" transform="translate(60,120)"/>
<path d="M0 0 C3.3 0 6.6 0 10 0 C10 3.3 10 6.6 10 10 C6.7 10 3.4 10 0 10 C0 6.7 0 3.4 0 0 Z " fill="#E77C56" transform="translate(40,120)"/>
<path d="M0 0 C3.3 0 6.6 0 10 0 C10 3.3 10 6.6 10 10 C6.7 10 3.4 10 0 10 C0 6.7 0 3.4 0 0 Z " fill="#9C4529" transform="translate(20,120)"/>
<path d="M0 0 C3.3 0 6.6 0 10 0 C10 3.3 10 6.6 10 10 C6.7 10 3.4 10 0 10 C0 6.7 0 3.4 0 0 Z " fill="#9C4E31" transform="translate(90,110)"/>
<path d="M0 0 C3.3 0 6.6 0 10 0 C10 3.3 10 6.6 10 10 C6.7 10 3.4 10 0 10 C0 6.7 0 3.4 0 0 Z " fill="#9C4529" transform="translate(10,110)"/>
<path d="M0 0 C3.3 0 6.6 0 10 0 C10 3.3 10 6.6 10 10 C6.7 10 3.4 10 0 10 C0 6.7 0 3.4 0 0 Z " fill="#9C4E31" transform="translate(120,100)"/>
<path d="M0 0 C3.3 0 6.6 0 10 0 C10 3.3 10 6.6 10 10 C6.7 10 3.4 10 0 10 C0 6.7 0 3.4 0 0 Z " fill="#9C4E31" transform="translate(100,100)"/>
<path d="M0 0 C3.3 0 6.6 0 10 0 C10 3.3 10 6.6 10 10 C6.7 10 3.4 10 0 10 C0 6.7 0 3.4 0 0 Z " fill="#C15A36" transform="translate(50,100)"/>
<path d="M0 0 C3.3 0 6.6 0 10 0 C10 3.3 10 6.6 10 10 C6.7 10 3.4 10 0 10 C0 6.7 0 3.4 0 0 Z " fill="#C15A36" transform="translate(140,90)"/>
<path d="M0 0 C3.3 0 6.6 0 10 0 C10 3.3 10 6.6 10 10 C6.7 10 3.4 10 0 10 C0 6.7 0 3.4 0 0 Z " fill="#9C4E31" transform="translate(110,90)"/>
<path d="M0 0 C3.3 0 6.6 0 10 0 C10 3.3 10 6.6 10 10 C6.7 10 3.4 10 0 10 C0 6.7 0 3.4 0 0 Z " fill="#C15A36" transform="translate(60,90)"/>
<path d="M0 0 C3.3 0 6.6 0 10 0 C10 3.3 10 6.6 10 10 C6.7 10 3.4 10 0 10 C0 6.7 0 3.4 0 0 Z " fill="#FBC3B6" transform="translate(40,90)"/>
<path d="M0 0 C3.3 0 6.6 0 10 0 C10 3.3 10 6.6 10 10 C6.7 10 3.4 10 0 10 C0 6.7 0 3.4 0 0 Z " fill="#C15A36" transform="translate(30,90)"/>
<path d="M0 0 C3.3 0 6.6 0 10 0 C10 3.3 10 6.6 10 10 C6.7 10 3.4 10 0 10 C0 6.7 0 3.4 0 0 Z " fill="#E77C56" transform="translate(90,80)"/>
<path d="M0 0 C3.3 0 6.6 0 10 0 C10 3.3 10 6.6 10 10 C6.7 10 3.4 10 0 10 C0 6.7 0 3.4 0 0 Z " fill="#FC9982" transform="translate(30,80)"/>
<path d="M0 0 C3.3 0 6.6 0 10 0 C10 3.3 10 6.6 10 10 C6.7 10 3.4 10 0 10 C0 6.7 0 3.4 0 0 Z " fill="#C15A36" transform="translate(20,80)"/>
<path d="M0 0 C3.3 0 6.6 0 10 0 C10 3.3 10 6.6 10 10 C6.7 10 3.4 10 0 10 C0 6.7 0 3.4 0 0 Z " fill="#C15A36" transform="translate(120,70)"/>
<path d="M0 0 C3.3 0 6.6 0 10 0 C10 3.3 10 6.6 10 10 C6.7 10 3.4 10 0 10 C0 6.7 0 3.4 0 0 Z " fill="#E77C56" transform="translate(80,70)"/>
<path d="M0 0 C3.3 0 6.6 0 10 0 C10 3.3 10 6.6 10 10 C6.7 10 3.4 10 0 10 C0 6.7 0 3.4 0 0 Z " fill="#FC9982" transform="translate(20,70)"/>
<path d="M0 0 C3.3 0 6.6 0 10 0 C10 3.3 10 6.6 10 10 C6.7 10 3.4 10 0 10 C0 6.7 0 3.4 0 0 Z " fill="#8A4129" transform="translate(150,60)"/>
<path d="M0 0 C3.3 0 6.6 0 10 0 C10 3.3 10 6.6 10 10 C6.7 10 3.4 10 0 10 C0 6.7 0 3.4 0 0 Z " fill="#E77C56" transform="translate(140,60)"/>
<path d="M0 0 C3.3 0 6.6 0 10 0 C10 3.3 10 6.6 10 10 C6.7 10 3.4 10 0 10 C0 6.7 0 3.4 0 0 Z " fill="#C15A36" transform="translate(90,60)"/>
<path d="M0 0 C3.3 0 6.6 0 10 0 C10 3.3 10 6.6 10 10 C6.7 10 3.4 10 0 10 C0 6.7 0 3.4 0 0 Z " fill="#C15A36" transform="translate(20,60)"/>
<path d="M0 0 C3.3 0 6.6 0 10 0 C10 3.3 10 6.6 10 10 C6.7 10 3.4 10 0 10 C0 6.7 0 3.4 0 0 Z " fill="#FC9982" transform="translate(10,60)"/>
<path d="M0 0 C3.3 0 6.6 0 10 0 C10 3.3 10 6.6 10 10 C6.7 10 3.4 10 0 10 C0 6.7 0 3.4 0 0 Z " fill="#8A4129" transform="translate(140,50)"/>
<path d="M0 0 C3.3 0 6.6 0 10 0 C10 3.3 10 6.6 10 10 C6.7 10 3.4 10 0 10 C0 6.7 0 3.4 0 0 Z " fill="#C15A36" transform="translate(100,50)"/>
<path d="M0 0 C3.3 0 6.6 0 10 0 C10 3.3 10 6.6 10 10 C6.7 10 3.4 10 0 10 C0 6.7 0 3.4 0 0 Z " fill="#C15A36" transform="translate(70,50)"/>
<path d="M0 0 C3.3 0 6.6 0 10 0 C10 3.3 10 6.6 10 10 C6.7 10 3.4 10 0 10 C0 6.7 0 3.4 0 0 Z " fill="#C15A36" transform="translate(40,50)"/>
<path d="M0 0 C3.3 0 6.6 0 10 0 C10 3.3 10 6.6 10 10 C6.7 10 3.4 10 0 10 C0 6.7 0 3.4 0 0 Z " fill="#8A4129" transform="translate(130,40)"/>
<path d="M0 0 C3.3 0 6.6 0 10 0 C10 3.3 10 6.6 10 10 C6.7 10 3.4 10 0 10 C0 6.7 0 3.4 0 0 Z " fill="#E77C56" transform="translate(70,40)"/>
<path d="M0 0 C3.3 0 6.6 0 10 0 C10 3.3 10 6.6 10 10 C6.7 10 3.4 10 0 10 C0 6.7 0 3.4 0 0 Z " fill="#8A4129" transform="translate(120,30)"/>
</svg>
